<?xml version="1.0" standalone="no"?>
<!DOCTYPE svg PUBLIC "-//W3C//DTD SVG 20010904//EN"
 "http://www.w3.org/TR/2001/REC-SVG-20010904/DTD/svg10.dtd">
<svg version="1.0" xmlns="http://www.w3.org/2000/svg"
 width="224.000000pt" height="224.000000pt" viewBox="0 0 224.000000 224.000000"
 preserveAspectRatio="xMidYMid meet">

<g transform="translate(0.000000,224.000000) scale(0.100000,-0.100000)"
fill="#000000" stroke="none">
<path d="M1430 1955 l0 -55 235 0 235 0 0 -695 0 -695 60 0 60 0 0 750 0 750
-295 0 -295 0 0 -55z"/>
<path d="M1020 1540 l0 -60 235 0 235 0 0 -695 0 -696 58 3 57 3 0 750 0 750
-292 3 -293 2 0 -60z"/>
<path d="M630 1155 l0 -55 240 0 240 0 0 -550 0 -550 55 0 55 0 0 605 0 605
-295 0 -295 0 0 -55z"/>
<path d="M224 746 c-3 -7 -4 -33 -2 -57 l3 -44 238 -3 237 -2 0 -320 0 -320
55 0 55 0 0 380 0 380 -290 0 c-238 0 -292 -2 -296 -14z"/>
</g>
</svg>
